<svg xmlns="http://www.w3.org/2000/svg" viewBox="0 0 600 123"><g id="Layer_1" data-name="Layer 1"><path d="M10.41,120.24V78.7L1,82.69v-.41L3,76.5l7.42-3.15V58.54L17,52l.35-.15V70.39l9.41-4v.41l-2,5.78-7.42,3.15v37.84l-6.62,6.52Z"/><path d="M46.66,104.86q-6.58,2.27-10.14.35-4.34-2.31-4.33-10.38V66.16l6.63-6.51.34-.15V91.87q0,5.14,2.27,6.45a5.65,5.65,0,0,0,5.23,0,12,12,0,0,0,5.44-4.82,14.76,14.76,0,0,0,2-8V56.84l6.62-6.51.35-.15V82.55q0,5.15,2.27,6.45a5.65,5.65,0,0,0,5.23,0,11.92,11.92,0,0,0,5.43-4.82,14.77,14.77,0,0,0,2.06-8V47.52L82.73,41l.35-.15V76.19L68.62,95.54q-6.66,2.28-10.15.35a7.24,7.24,0,0,1-2.89-3Z"/><path d="M108,78.82q-6.59,2.27-10.14.36-4.32-2.37-4.32-10.39V49.63L108,30.28q6.59-2.27,10.14-.35,4.32,2.31,4.32,10.38V59.48Zm0-6.5a11.64,11.64,0,0,0,5.4-4.8,15,15,0,0,0,2.09-8V43.27q0-5.15-2.28-6.44a5.64,5.64,0,0,0-5.21,0,11.64,11.64,0,0,0-5.4,4.8,15,15,0,0,0-2.09,8.05V65.84q0,5.13,2.26,6.44A5.65,5.65,0,0,0,108,72.32Z"/><path d="M134.54,74.44V41.7l-5.23-2.22v-.41l2-4.09,3.24,1.37V22.25L149,15.18a27.43,27.43,0,0,1,10.14,8.26l-4.92,2.72A12.81,12.81,0,0,0,149,21.68c-2.23-.95-4-.88-5.44.2s-2.06,3.16-2.06,6.29V39.31l12.55,5.33v.41l-2,4.09-10.56-4.48v29l-6.62.89Z"/><path d="M173.26,25.48v9.38l-6.62.89-.35-.15V26.22l6.63-.89Zm-7,62.44V43.09l6.63-.9.34.15V87.18l-6.62.89Z"/><path d="M193.86,99.62,180.41,48.75l6-.81.35.15L198,90.68l11.14-33.11.34.14,3.47,3.44-12.83,37.7-5.91.92Z"/><path d="M230.14,115A27.49,27.49,0,0,1,220,106.77a23.49,23.49,0,0,1-4.32-14V73.55l14.46-7.06a27.44,27.44,0,0,1,10.15,8.25,23.38,23.38,0,0,1,4.32,14.05l-21.45,11.32a12.75,12.75,0,0,0,6.91,8.36,5.84,5.84,0,0,0,5.51-.17q2.05-1.23,2.06-6.27l6.62-.88.35.15V108Zm-7.49-21.15,15-7.89a14.5,14.5,0,0,0-2.28-8.5A12.32,12.32,0,0,0,230.14,73q-3.37-1.44-5.43.2t-2.06,6.28Z"/><path d="M270,115.16q-6.6,2.25-10.15.35c-2.88-1.54-4.32-5-4.32-10.38l6.62-6.51.35-.15v3.7q0,5,2.27,6.44c1.44.9,3.18.91,5.23,0a11.67,11.67,0,0,0,5.42-4.81,15.06,15.06,0,0,0,2.07-8q0-4.65-2.34-5.38-2-.63-5.19.72-8.16,3.47-11.36.38Q257,90,257,84l13-17.4q5.09-2,8.54,0,2.78,1.67,3.45,5.94l-6.63,6.52-.34.14V78c0-2-.35-3.32-1.05-4q-1.74-1.82-4.78-.52a8.83,8.83,0,0,0-4.49,4.13,9.33,9.33,0,0,0-1.08,4.4c0,1.76.63,2.89,1.88,3.4.7.28,2.18-.06,4.46-1q7.5-3.18,10.77-1.16,3.74,2.3,3.73,12.61Z"/><path d="M308.36,98.88q-6.6,2.27-10.15.36-4.32-2.37-4.32-10.38V69.69l14.47-19.35q6.58-2.25,10.14-.35,4.32,2.32,4.32,10.38L301.37,89.89a4.25,4.25,0,0,0,1.74,2.43,5.56,5.56,0,0,0,5.17.07,13.16,13.16,0,0,0,5.51-4.85,13.87,13.87,0,0,0,2.06-8l6.62-6.5.35-.15v6.67Zm-7.5-14.79,15-20.62q0-5.23-2.28-6.55a5.58,5.58,0,0,0-5.21-.08,11.61,11.61,0,0,0-5.44,4.82,15.18,15.18,0,0,0-2.06,8Z"/><path d="M339.93,85.48,326.48,46l6-5.93.35-.15L344.06,73,355.2,30.46l.34-.14,3.47.49L346.18,79.4l-5.91,5.93Z"/><path d="M376.21,70.08q-6.58,2.25-10.14.35-4.32-2.36-4.32-10.38V40.88l14.46-19.34q6.6-2.26,10.15-.36,4.32,2.33,4.32,10.39L369.23,61.09A4.32,4.32,0,0,0,371,63.52a5.59,5.59,0,0,0,5.17.07,13.23,13.23,0,0,0,5.51-4.85,13.89,13.89,0,0,0,2.06-8l6.62-6.5.35-.15v6.66Zm-7.49-14.8,15-20.61q0-5.24-2.28-6.56a5.63,5.63,0,0,0-5.22-.07,11.58,11.58,0,0,0-5.43,4.82,15.15,15.15,0,0,0-2.06,8Z"/><path d="M401.13,59.5V24.17L415.6,4.82q6.58-2.27,10.14-.35,4.32,2.31,4.32,10.38V43.52L423.44,50l-.35.15V17.81q0-5.14-2.26-6.45a5.65,5.65,0,0,0-5.23,0,11.89,11.89,0,0,0-5.44,4.82,14.76,14.76,0,0,0-2.05,8V52.84l-6.63,6.51Z"/><path d="M336.62,108.87a5.23,5.23,0,0,1-1.57-3.82l0-.9,0-.91a5.25,5.25,0,0,1,1.57-3.82,5.59,5.59,0,0,1,4-1.38,6.53,6.53,0,0,1,3,.64,4.63,4.63,0,0,1,1.84,1.55,3.65,3.65,0,0,1,.64,1.75.43.43,0,0,1-.15.38.53.53,0,0,1-.39.16h-2a.55.55,0,0,1-.37-.1,1,1,0,0,1-.22-.38,2.69,2.69,0,0,0-.9-1.24,2.45,2.45,0,0,0-1.41-.38,2.26,2.26,0,0,0-1.79.72,3.41,3.41,0,0,0-.69,2.22l0,.83,0,.75c.09,2,.91,2.94,2.48,2.94a2.49,2.49,0,0,0,1.43-.38,2.56,2.56,0,0,0,.88-1.25.85.85,0,0,1,.21-.36.52.52,0,0,1,.38-.12h2a.57.57,0,0,1,.39.16.45.45,0,0,1,.15.39,3.61,3.61,0,0,1-.63,1.7,4.79,4.79,0,0,1-1.81,1.57,6.37,6.37,0,0,1-3.05.66A5.59,5.59,0,0,1,336.62,108.87Z"/><path d="M349.54,108.89a5.19,5.19,0,0,1-1.56-3.75l0-1,0-1a5.19,5.19,0,0,1,1.58-3.74,6.76,6.76,0,0,1,8.16,0,5.19,5.19,0,0,1,1.58,3.74c0,.18,0,.52,0,1s0,.81,0,1a5.19,5.19,0,0,1-1.56,3.75,6.86,6.86,0,0,1-8.2,0Zm5.95-1.67a3.44,3.44,0,0,0,.69-2.19,8.26,8.26,0,0,0,0-.88,8.13,8.13,0,0,0,0-.88,3.45,3.45,0,0,0-.7-2.21,2.29,2.29,0,0,0-1.83-.76,2.33,2.33,0,0,0-1.85.76,3.45,3.45,0,0,0-.7,2.21l0,.88,0,.88a3.39,3.39,0,0,0,.7,2.19,2.33,2.33,0,0,0,1.85.75A2.29,2.29,0,0,0,355.49,107.22Z"/><path d="M362,109.87a.53.53,0,0,1-.16-.39v-15a.51.51,0,0,1,.16-.4.51.51,0,0,1,.38-.14h1.9a.51.51,0,0,1,.39.14.54.54,0,0,1,.15.4v15a.56.56,0,0,1-.15.39.51.51,0,0,1-.39.15h-1.9A.52.52,0,0,1,362,109.87Z"/><path d="M368,109.87a.53.53,0,0,1-.16-.39v-15a.51.51,0,0,1,.16-.4.51.51,0,0,1,.38-.14h1.9a.53.53,0,0,1,.4.14.57.57,0,0,1,.14.4v15a.6.6,0,0,1-.14.39.54.54,0,0,1-.4.15h-1.9A.52.52,0,0,1,368,109.87Z"/><path d="M375.16,109.79a3.86,3.86,0,0,1-1.52-1.26,3.07,3.07,0,0,1,.69-4.22,7.34,7.34,0,0,1,3.42-1.29l3.09-.46v-.47a2,2,0,0,0-.49-1.47,2.18,2.18,0,0,0-1.59-.5,2.3,2.3,0,0,0-1.19.27,4,4,0,0,0-.74.56l-.37.37a.34.34,0,0,1-.34.27h-1.76a.48.48,0,0,1-.35-.13.46.46,0,0,1-.15-.36,2.36,2.36,0,0,1,.55-1.28,4.27,4.27,0,0,1,1.64-1.24,6.22,6.22,0,0,1,2.74-.54,5.41,5.41,0,0,1,3.89,1.2,4.23,4.23,0,0,1,1.22,3.14v7.1a.56.56,0,0,1-.15.39.54.54,0,0,1-.4.15h-1.87a.56.56,0,0,1-.39-.15.57.57,0,0,1-.16-.39v-.88a3.67,3.67,0,0,1-1.4,1.19,4.89,4.89,0,0,1-2.26.46A4.76,4.76,0,0,1,375.16,109.79Zm4.92-2.52a3.29,3.29,0,0,0,.79-2.35v-.46l-2.26.37c-1.74.27-2.6.85-2.6,1.74a1.25,1.25,0,0,0,.6,1.11,2.46,2.46,0,0,0,1.43.4A2.73,2.73,0,0,0,380.08,107.27Z"/><path d="M389.73,108.65v.83a.53.53,0,0,1-.57.54h-1.81a.54.54,0,0,1-.38-.15.53.53,0,0,1-.16-.39v-15a.51.51,0,0,1,.16-.4.53.53,0,0,1,.38-.14h2a.53.53,0,0,1,.4.14.57.57,0,0,1,.14.4v5a4.3,4.3,0,0,1,3.46-1.5,4.35,4.35,0,0,1,3.52,1.48,6.19,6.19,0,0,1,1.3,3.88c0,.18,0,.43,0,.75s0,.55,0,.74a6.21,6.21,0,0,1-1.32,3.9,4.31,4.31,0,0,1-3.5,1.46A4.26,4.26,0,0,1,389.73,108.65Zm5.31-3.82c0-.15,0-.38,0-.68s0-.53,0-.68c-.11-2-1-3-2.58-3a2.32,2.32,0,0,0-1.9.79,3.12,3.12,0,0,0-.7,1.92c0,.18,0,.47,0,.88s0,.68,0,.86a3.48,3.48,0,0,0,.68,2,2.25,2.25,0,0,0,1.92.84C394.07,107.81,394.93,106.81,395,104.83Z"/><path d="M401.78,108.89a5.19,5.19,0,0,1-1.56-3.75l0-1,0-1a5.19,5.19,0,0,1,1.58-3.74,6.76,6.76,0,0,1,8.16,0,5.19,5.19,0,0,1,1.58,3.74c0,.18,0,.52,0,1s0,.81,0,1a5.19,5.19,0,0,1-1.56,3.75,6.86,6.86,0,0,1-8.2,0Zm6-1.67a3.44,3.44,0,0,0,.69-2.19c0-.15,0-.45,0-.88s0-.73,0-.88a3.45,3.45,0,0,0-.7-2.21,2.61,2.61,0,0,0-3.68,0,3.45,3.45,0,0,0-.7,2.21l0,.88,0,.88a3.39,3.39,0,0,0,.7,2.19,2.64,2.64,0,0,0,3.69,0Z"/><path d="M414.23,109.87a.53.53,0,0,1-.16-.39V98.83a.52.52,0,0,1,.16-.4.51.51,0,0,1,.38-.16h1.86a.55.55,0,0,1,.56.56v.93a3.86,3.86,0,0,1,3.26-1.49h.95a.51.51,0,0,1,.39.15.53.53,0,0,1,.15.39v1.65a.56.56,0,0,1-.15.39.52.52,0,0,1-.39.16h-1.79a2.11,2.11,0,0,0-2.28,2.28v6.19a.53.53,0,0,1-.16.39.52.52,0,0,1-.38.15h-2A.54.54,0,0,1,414.23,109.87Z"/><path d="M424.66,109.79a3.83,3.83,0,0,1-1.51-1.26,3,3,0,0,1,.69-4.22,7.25,7.25,0,0,1,3.41-1.29l3.1-.46v-.47a2,2,0,0,0-.5-1.47,2.17,2.17,0,0,0-1.58-.5,2.32,2.32,0,0,0-1.2.27,4.32,4.32,0,0,0-.74.56l-.37.37a.34.34,0,0,1-.34.27h-1.76a.49.49,0,0,1-.35-.13.46.46,0,0,1-.15-.36,2.38,2.38,0,0,1,.56-1.28,4.23,4.23,0,0,1,1.63-1.24,6.22,6.22,0,0,1,2.74-.54,5.39,5.39,0,0,1,3.89,1.2,4.23,4.23,0,0,1,1.22,3.14v7.1a.56.56,0,0,1-.15.39.53.53,0,0,1-.39.15H431a.52.52,0,0,1-.38-.15.53.53,0,0,1-.16-.39v-.88a3.75,3.75,0,0,1-1.4,1.19,5,5,0,0,1-2.27.46A4.79,4.79,0,0,1,424.66,109.79Zm4.92-2.52a3.24,3.24,0,0,0,.79-2.35v-.46l-2.26.37c-1.73.27-2.6.85-2.6,1.74a1.25,1.25,0,0,0,.6,1.11,2.5,2.5,0,0,0,1.43.4A2.73,2.73,0,0,0,429.58,107.27Z"/><path d="M438.42,109a4.32,4.32,0,0,1-1-3.15v-5.11h-1.79a.55.55,0,0,1-.54-.54V98.81a.55.55,0,0,1,.54-.54h1.79V94.52a.54.54,0,0,1,.15-.4.55.55,0,0,1,.39-.14h1.88a.52.52,0,0,1,.39.14.54.54,0,0,1,.15.4v3.75h2.82a.55.55,0,0,1,.55.54v1.34a.55.55,0,0,1-.55.54h-2.82v4.86a2.58,2.58,0,0,0,.34,1.47,1.22,1.22,0,0,0,1.1.49h1.59a.53.53,0,0,1,.39.15.54.54,0,0,1,.15.4v1.42a.56.56,0,0,1-.15.39.53.53,0,0,1-.39.15h-1.86A4.09,4.09,0,0,1,438.42,109Z"/><path d="M446,96.19a.49.49,0,0,1-.16-.38V94.16a.53.53,0,0,1,.16-.41.49.49,0,0,1,.38-.16h2.08a.54.54,0,0,1,.41.16.53.53,0,0,1,.16.41v1.65a.5.5,0,0,1-.17.38.55.55,0,0,1-.4.16h-2.08A.49.49,0,0,1,446,96.19Zm.09,13.68a.53.53,0,0,1-.16-.39V98.81a.5.5,0,0,1,.16-.39.52.52,0,0,1,.38-.15h1.92a.51.51,0,0,1,.39.16.53.53,0,0,1,.16.38v10.67a.57.57,0,0,1-.16.39.54.54,0,0,1-.39.15h-1.92A.52.52,0,0,1,446.08,109.87Z"/><path d="M455.55,109.88a1,1,0,0,1-.29-.42L451,99a.49.49,0,0,1,0-.2.47.47,0,0,1,.15-.35.46.46,0,0,1,.33-.15h1.88a.6.6,0,0,1,.61.43l3,7.89,3-7.89a.67.67,0,0,1,.19-.29.53.53,0,0,1,.4-.14h1.88a.45.45,0,0,1,.34.15.49.49,0,0,1,.13.35.88.88,0,0,1,0,.2l-4.23,10.49a.83.83,0,0,1-.81.56h-1.72A.79.79,0,0,1,455.55,109.88Z"/><path d="M465.55,108.8a5.79,5.79,0,0,1-1.57-4.11l0-.57a6.36,6.36,0,0,1,1.48-4.45,6,6,0,0,1,8.25,0,6.28,6.28,0,0,1,1.46,4.34v.48a.51.51,0,0,1-.16.38.54.54,0,0,1-.41.16h-7.5v.18a3.51,3.51,0,0,0,.69,2.09,2.13,2.13,0,0,0,1.77.83,2.55,2.55,0,0,0,2.1-1,1.41,1.41,0,0,1,.32-.31.9.9,0,0,1,.39-.06h2a.56.56,0,0,1,.36.12.38.38,0,0,1,.14.31,2.1,2.1,0,0,1-.64,1.28,5.39,5.39,0,0,1-1.84,1.28,6.73,6.73,0,0,1-2.78.54A5.49,5.49,0,0,1,465.55,108.8Zm6.48-5.69v0a3.18,3.18,0,0,0-.67-2.13,2.44,2.44,0,0,0-3.63,0,3.28,3.28,0,0,0-.65,2.13v0Z"/><path d="M484.67,109.46,481.43,99a.88.88,0,0,1,0-.2.5.5,0,0,1,.14-.35.43.43,0,0,1,.34-.15h1.71a.58.58,0,0,1,.4.14.57.57,0,0,1,.21.29l2.2,7.44,2.32-7.37a.85.85,0,0,1,.24-.35.63.63,0,0,1,.44-.15h1.15a.66.66,0,0,1,.45.15.64.64,0,0,1,.21.35l2.35,7.37,2.19-7.44a.57.57,0,0,1,.21-.29.54.54,0,0,1,.4-.14h1.7a.51.51,0,0,1,.5.5l-.05.2-3.23,10.49a1,1,0,0,1-.26.42.67.67,0,0,1-.46.14h-1.5a.69.69,0,0,1-.74-.56l-2.33-7.1-2.35,7.1a.74.74,0,0,1-.77.56h-1.47A.71.71,0,0,1,484.67,109.46Z"/><path d="M501.53,108.89a5.19,5.19,0,0,1-1.56-3.75l0-1,0-1a5.19,5.19,0,0,1,1.58-3.74,6.76,6.76,0,0,1,8.16,0,5.19,5.19,0,0,1,1.58,3.74c0,.18,0,.52,0,1s0,.81,0,1a5.19,5.19,0,0,1-1.56,3.75,6.86,6.86,0,0,1-8.2,0Zm6-1.67a3.44,3.44,0,0,0,.69-2.19,8.26,8.26,0,0,0,0-.88,8.13,8.13,0,0,0,0-.88,3.45,3.45,0,0,0-.7-2.21,2.29,2.29,0,0,0-1.83-.76,2.33,2.33,0,0,0-1.85.76,3.45,3.45,0,0,0-.7,2.21l0,.88,0,.88a3.39,3.39,0,0,0,.7,2.19,2.33,2.33,0,0,0,1.85.75A2.29,2.29,0,0,0,507.48,107.22Z"/><path d="M514,109.87a.57.57,0,0,1-.16-.39V98.83a.56.56,0,0,1,.16-.4.53.53,0,0,1,.39-.16h1.85a.54.54,0,0,1,.41.16.56.56,0,0,1,.16.4v.93A3.83,3.83,0,0,1,520,98.27h1a.54.54,0,0,1,.4.15.56.56,0,0,1,.14.39v1.65a.6.6,0,0,1-.14.39.54.54,0,0,1-.4.16H519.2a2.11,2.11,0,0,0-2.28,2.28v6.19a.53.53,0,0,1-.16.39.52.52,0,0,1-.38.15h-2A.56.56,0,0,1,514,109.87Z"/><path d="M523.48,109.87a.53.53,0,0,1-.16-.39v-15a.51.51,0,0,1,.16-.4.51.51,0,0,1,.38-.14h1.88a.52.52,0,0,1,.38.15.53.53,0,0,1,.16.39v7.73l3.75-3.6a1.46,1.46,0,0,0,.22-.17,1.05,1.05,0,0,1,.28-.17,1.09,1.09,0,0,1,.34,0H533a.45.45,0,0,1,.36.14.48.48,0,0,1,.13.36.55.55,0,0,1-.22.4l-4.61,4.37,5.17,5.6a.57.57,0,0,1,.2.39.48.48,0,0,1-.13.36.45.45,0,0,1-.34.13h-2.19a1.13,1.13,0,0,1-.47-.07,2.49,2.49,0,0,1-.37-.31l-4.27-4.54v4.38a.53.53,0,0,1-.16.39.52.52,0,0,1-.38.15h-1.88A.52.52,0,0,1,523.48,109.87Z"/><path d="M537.15,109.73a4.58,4.58,0,0,1-1.71-1.21,2,2,0,0,1-.55-1.19A.46.46,0,0,1,535,107a.49.49,0,0,1,.35-.13h1.85a.4.4,0,0,1,.32.18l.51.43a3,3,0,0,0,2,.72,2.81,2.81,0,0,0,1.47-.35,1.11,1.11,0,0,0,.56-1,1,1,0,0,0-.26-.73,2.32,2.32,0,0,0-.92-.52,16.64,16.64,0,0,0-2-.53,6.11,6.11,0,0,1-2.84-1.24,2.87,2.87,0,0,1-.92-2.22,3,3,0,0,1,.55-1.71,4,4,0,0,1,1.61-1.31,6,6,0,0,1,2.57-.51,6.58,6.58,0,0,1,2.64.49,4.62,4.62,0,0,1,1.69,1.16,2,2,0,0,1,.57,1.2.5.5,0,0,1-.14.35.49.49,0,0,1-.35.15h-1.7a.45.45,0,0,1-.38-.18q-.16-.12-.51-.42a3.53,3.53,0,0,0-.78-.49,2.69,2.69,0,0,0-1-.18,2,2,0,0,0-1.29.37,1.15,1.15,0,0,0-.45,1,1.05,1.05,0,0,0,.21.67,2.1,2.1,0,0,0,.87.51,14.27,14.27,0,0,0,2,.49q4.06.8,4.07,3.55a3.08,3.08,0,0,1-1.39,2.6,6.61,6.61,0,0,1-3.88,1A7,7,0,0,1,537.15,109.73Z"/><path d="M547.77,114.17a.53.53,0,0,1-.15-.39v-15a.53.53,0,0,1,.15-.39.56.56,0,0,1,.39-.15H550a.52.52,0,0,1,.4.16.49.49,0,0,1,.16.38v.91a4.13,4.13,0,0,1,3.6-1.68,4.33,4.33,0,0,1,3.5,1.44,6.14,6.14,0,0,1,1.31,3.85c0,.18,0,.46,0,.82s0,.63,0,.81a6,6,0,0,1-1.3,3.83,4.34,4.34,0,0,1-3.51,1.46,4,4,0,0,1-3.46-1.6v5.13a.53.53,0,0,1-.15.39.54.54,0,0,1-.4.15h-2A.56.56,0,0,1,547.77,114.17Zm8.07-9.34a7.72,7.72,0,0,0,0-1.36c-.1-2-1-3-2.57-3a2.24,2.24,0,0,0-1.92.83,3.47,3.47,0,0,0-.68,2c0,.18,0,.46,0,.86s0,.68,0,.88a3.11,3.11,0,0,0,.7,1.92,2.32,2.32,0,0,0,1.9.79C554.88,107.81,555.74,106.81,555.84,104.83Z"/><path d="M562.77,109.79a3.83,3.83,0,0,1-1.51-1.26,3,3,0,0,1,.69-4.22,7.3,7.3,0,0,1,3.41-1.29l3.1-.46v-.47a2,2,0,0,0-.5-1.47,2.17,2.17,0,0,0-1.58-.5,2.32,2.32,0,0,0-1.2.27,4.32,4.32,0,0,0-.74.56l-.37.37a.34.34,0,0,1-.34.27H562a.49.49,0,0,1-.35-.13.46.46,0,0,1-.15-.36,2.38,2.38,0,0,1,.56-1.28,4.19,4.19,0,0,1,1.64-1.24A6.18,6.18,0,0,1,566.4,98a5.39,5.39,0,0,1,3.89,1.2,4.23,4.23,0,0,1,1.22,3.14v7.1a.56.56,0,0,1-.15.39.53.53,0,0,1-.39.15h-1.88a.52.52,0,0,1-.38-.15.53.53,0,0,1-.16-.39v-.88a3.75,3.75,0,0,1-1.4,1.19,5,5,0,0,1-2.26.46A4.81,4.81,0,0,1,562.77,109.79Zm4.92-2.52a3.24,3.24,0,0,0,.79-2.35v-.46l-2.26.37c-1.73.27-2.6.85-2.6,1.74a1.25,1.25,0,0,0,.6,1.11,2.5,2.5,0,0,0,1.43.4A2.73,2.73,0,0,0,567.69,107.27Z"/><path d="M575.52,108.87a5.23,5.23,0,0,1-1.57-3.82l0-.9,0-.91a5.25,5.25,0,0,1,1.57-3.82,5.59,5.59,0,0,1,4-1.38,6.61,6.61,0,0,1,3,.64,4.66,4.66,0,0,1,1.83,1.55A3.55,3.55,0,0,1,585,102a.4.4,0,0,1-.15.38.53.53,0,0,1-.39.16h-2a.55.55,0,0,1-.37-.1,1,1,0,0,1-.22-.38,2.75,2.75,0,0,0-.89-1.24,2.48,2.48,0,0,0-1.42-.38,2.27,2.27,0,0,0-1.79.72,3.41,3.41,0,0,0-.69,2.22l0,.83,0,.75c.09,2,.92,2.94,2.48,2.94a2.47,2.47,0,0,0,1.43-.38,2.56,2.56,0,0,0,.88-1.25.85.85,0,0,1,.21-.36.54.54,0,0,1,.38-.12h2a.57.57,0,0,1,.39.16.43.43,0,0,1,.15.39,3.61,3.61,0,0,1-.63,1.7,4.71,4.71,0,0,1-1.81,1.57,6.35,6.35,0,0,1-3,.66A5.59,5.59,0,0,1,575.52,108.87Z"/><path d="M588.4,108.8a5.79,5.79,0,0,1-1.57-4.11l0-.57a6.36,6.36,0,0,1,1.48-4.45,6,6,0,0,1,8.25,0A6.28,6.28,0,0,1,598,104v.48a.51.51,0,0,1-.16.38.52.52,0,0,1-.4.16h-7.51v.18a3.51,3.51,0,0,0,.69,2.09,2.13,2.13,0,0,0,1.77.83,2.58,2.58,0,0,0,2.11-1,1.24,1.24,0,0,1,.31-.31.93.93,0,0,1,.39-.06h2a.55.55,0,0,1,.35.12.38.38,0,0,1,.14.31,2.1,2.1,0,0,1-.64,1.28,5.3,5.3,0,0,1-1.84,1.28,6.73,6.73,0,0,1-2.78.54A5.49,5.49,0,0,1,588.4,108.8Zm6.48-5.69v0a3.18,3.18,0,0,0-.67-2.13,2.22,2.22,0,0,0-1.82-.81,2.18,2.18,0,0,0-1.8.81,3.23,3.23,0,0,0-.66,2.13v0Z"/></g></svg>